<?xml version="1.0" encoding="UTF-8"?>
<svg width="150" height="150" viewBox="0 0 150 150" xmlns="http://www.w3.org/2000/svg">

    <!-- Red -->
    <polygon points="0,0 150,0, 150,75 0,75" fill="#e6a3a3"/>

    <!-- Green -->
    <polygon points="0,150 150,150, 150,75 0,75" fill="#cce6a3"/>

    <!-- Dashed Line-->
    <line x1="0" y1="75" x2="150" y2="75" stroke="black" stroke-width="2" stroke-dasharray="4"/>

    <!-- center Hexagon -->
    <g transform="translate(75,75) rotate(0)">
        <polygon points="-20,0 -10,-17 10,-17 20,0 10,17 -10,17" fill="white" stroke="black" stroke-width="2" />
    </g>
    <!-- Arrow -->
    <g transform="translate(80,75) rotate(90)">
        <polygon points="0,0 10,5 0,10" fill="black" />
    </g>

    <!-- red Hexagon -->
    <g transform="translate(35,35) rotate(0)">
        <polygon points="-20,0 -10,-17 10,-17 20,0 10,17 -10,17" fill="orangered" stroke="black" stroke-width="2" />
    </g>

    <!-- blue Hexagon -->
    <g transform="translate(125,70) rotate(0)">
        <polygon points="-20,0 -10,-17 10,-17 20,0 10,17 -10,17" fill="lightblue" stroke="black" stroke-width="2" />
    </g>

    <!-- blue Hexagon -->
    <g transform="translate(35,125) rotate(0)">
        <polygon points="-20,0 -10,-17 10,-17 20,0 10,17 -10,17" fill="lightgreen" stroke="black" stroke-width="2" />
    </g>
</svg>
