<?xml version="1.0" encoding="UTF-8"?>
<svg width="300" height="75" viewBox="0 0 300 75" xmlns="http://www.w3.org/2000/svg">
    <!-- Hexagons -->
    <g transform="translate(40,25) rotate(30)">
        <polygon points="-20,0 -10,-17 10,-17 20,0 10,17 -10,17" fill="red" stroke="black" stroke-width="2" />
    </g>

    <!-- Right Hexagon -->
    <g transform="translate(260,25) rotate(30)">
        <polygon points="-20,0 -10,-17 10,-17 20,0 10,17 -10,17" fill="red" stroke="black" stroke-width="2" />
    </g>

    <g transform="translate(175,25) rotate(30)">
        <polygon points="-20,0 -10,-17 10,-17 20,0 10,17 -10,17" fill="pink" stroke="black" stroke-width="2" />
    </g>

    <!-- Obstacle -->
    <g transform="translate(190,50) rotate(-10)">
        <polygon points="-20,0 -10,-17 10,-17 20,0 10,17 -10,17" fill="blue" stroke="black" stroke-width="2" />
    </g>

    <!-- Dashed Line with Arrow -->
    <line x1="25" y1="25" x2="225" y2="25" stroke="black" stroke-width="2" stroke-dasharray="5,5" marker-end="url(#arrowhead)"/>

    <!-- Arrowhead Marker -->
    <defs>
        <marker id="arrowhead" markerWidth="10" markerHeight="7" refX="1" refY="3.5" orient="auto">
            <polygon points="0,0 10,3.5 0,7" fill="black" />
        </marker>
    </defs>

    <!-- Distance Label -->
    <text x="140" y="20" font-size="14" font-family="Arial" fill="black">8"</text>






</svg>
