<?xml version="1.0" encoding="UTF-8"?>
<svg width="300" height="200" viewBox="0 0 300 200" xmlns="http://www.w3.org/2000/svg">
    <!-- Obstacle -->
    <rect x="50" y="80" width="100" height="60" fill="gray" stroke="black" stroke-width="2" rx="10"/>
    <text x="100" y="115" font-size="14" font-family="Arial" fill="white" text-anchor="middle">Obstacle</text>

    <!-- Hexagons -->
    <g transform="translate(40,40) rotate(30)">
        <polygon points="-20,0 -10,-17 10,-17 20,0 10,17 -10,17" fill="orangered" stroke="black" stroke-width="2" />
    </g>

    <g transform="translate(140,40) rotate(60)">
        <polygon points="-20,0 -10,-17 10,-17 20,0 10,17 -10,17" fill="orangered" stroke="black" stroke-width="2" />
    </g>

    <g transform="translate(210,80) rotate(0)">
        <polygon points="-20,0 -10,-17 10,-17 20,0 10,17 -10,17" fill="orangered" stroke="black" stroke-width="2" />
    </g>

    <g transform="translate(210,160) rotate(0)">
        <polygon points="-20,0 -10,-17 10,-17 20,0 10,17 -10,17" fill="orangered" stroke="black" stroke-width="2" />
    </g>

    <!-- Movement Lines -->
    <line x1="25" y1="40" x2="112" y2="40" stroke="black" stroke-width="2" stroke-dasharray="5,5" marker-end="url(#arrowhead)"/>
    <line x1="125" y1="30" x2="187" y2="67 " stroke="black" stroke-width="2" stroke-dasharray="5,5" marker-end="url(#arrowhead)"/>
    <line x1="210" y1="65" x2="210" y2="135" stroke="black" stroke-width="2" stroke-dasharray="5,5" marker-end="url(#arrowhead)"/>

    <!-- Arrowhead Marker -->
    <defs>
        <marker id="arrowhead" markerWidth="10" markerHeight="7" refX="6" refY="3.5" orient="auto">
            <polygon points="0,0 10,3.5 0,7" fill="black" />
        </marker>
    </defs>

    <!-- Distance Labels -->
    <text x="80" y="30" font-size="14" font-family="Arial" fill="black">4"</text>
    <text x="170" y="50" font-size="14" font-family="Arial" fill="black">2"</text>
    <text x="220" y="120" font-size="14" font-family="Arial" fill="black">2"</text>
</svg>
